<svg xmlns="http://www.w3.org/2000/svg" xmlns:serif="http://www.serif.com/" fill-rule="evenodd" stroke-linejoin="round" stroke-miterlimit="1.414" clip-rule="evenodd" viewBox="0 0 64 65"><rect width="64" height="64" y=".952" fill="none" serif:id="plc factory cpu psu controller"/><path fill="#212121" fill-rule="nonzero" d="M60.223,18.977c0.141,0.049 0.284,0.1 0.4,0.193c0.177,0.141 0.302,0.342 0.352,0.559c0.017,0.073 0.017,0.149 0.025,0.223l0,38c-0.017,0.149 -0.035,0.3 -0.099,0.434c-0.098,0.203 -0.266,0.37 -0.467,0.467c-0.181,0.087 -0.238,0.077 -0.434,0.099l-56,0c-0.196,-0.022 -0.253,-0.012 -0.434,-0.099c-0.267,-0.129 -0.474,-0.386 -0.541,-0.679c-0.017,-0.072 -0.017,-0.148 -0.025,-0.222l0,-38c0.008,-0.074 0.008,-0.15 0.025,-0.223c0.067,-0.294 0.273,-0.549 0.541,-0.678c0.181,-0.087 0.238,-0.077 0.434,-0.099l1,0l0,-11c0.017,-0.149 0.035,-0.3 0.099,-0.434c0.098,-0.204 0.266,-0.371 0.467,-0.467c0.181,-0.087 0.238,-0.077 0.434,-0.099l52,0c0.074,0.008 0.148,0.016 0.223,0.025c0.213,0.075 0.421,0.178 0.559,0.351c0.093,0.118 0.159,0.255 0.193,0.401c0.017,0.073 0.017,0.149 0.025,0.223l0,11l1,0l0.223,0.025Zm-2.223,1.975l-53,0l0,36l54,0l0,-36l-1,0Zm-16.206,31l-3.588,0c-0.617,-0.008 -1.188,-0.529 -1.206,-1.182c0,-0.008 0,-0.016 0,-0.024l0,-3.588c0.008,-0.62 0.542,-1.189 1.181,-1.206c0.008,0 0.017,0 0.025,0l3.588,0c0.008,0 0.017,0 0.025,0c0.623,0.024 1.164,0.557 1.181,1.181c0,0.008 0,0.016 0,0.024l0,3.589c-0.008,0.621 -0.529,1.188 -1.182,1.205c-0.008,0.001 -0.016,0.001 -0.024,0.001Zm12,0l-3.588,0c-0.617,-0.008 -1.188,-0.529 -1.206,-1.182c0,-0.008 0,-0.016 0,-0.024l0,-3.588c0.008,-0.62 0.542,-1.189 1.181,-1.206c0.008,0 0.017,0 0.025,0l3.588,0c0.008,0 0.017,0 0.025,0c0.623,0.024 1.164,0.557 1.181,1.181c0,0.008 0,0.016 0,0.024l0,3.589c-0.008,0.621 -0.529,1.188 -1.182,1.205c-0.008,0.001 -0.016,0.001 -0.024,0.001Zm-21.794,-2l-22,0c-0.074,-0.009 -0.15,-0.009 -0.223,-0.025c-0.294,-0.067 -0.549,-0.273 -0.678,-0.541c-0.087,-0.182 -0.077,-0.238 -0.099,-0.434l0,-20c0.022,-0.196 0.012,-0.253 0.099,-0.434c0.129,-0.269 0.385,-0.474 0.678,-0.541c0.073,-0.017 0.149,-0.017 0.223,-0.025l22,0c0.074,0.008 0.148,0.016 0.223,0.025c0.141,0.049 0.284,0.1 0.4,0.193c0.177,0.141 0.302,0.342 0.352,0.559c0.017,0.073 0.017,0.149 0.025,0.223l0,20c-0.025,0.224 -0.08,0.45 -0.218,0.623c-0.094,0.118 -0.213,0.213 -0.348,0.278c-0.181,0.087 -0.238,0.077 -0.434,0.099Zm9,-2l-2,0l0,2l2,0l0,-2Zm12,0c-0.667,0 -1.333,0 -2,0l0,2l2,0l0,-2Zm-22,-18l-20,0l0,18l20,0l0,-18Zm17,14l-4,0c-0.035,-0.001 -0.044,-0.001 -0.078,-0.003c-0.48,-0.038 -0.901,-0.455 -0.921,-0.958c-0.001,-0.013 -0.001,-0.026 -0.001,-0.039l0,-4c0.01,-0.504 0.416,-0.957 0.922,-0.997c0.034,-0.003 0.043,-0.003 0.078,-0.003l4,0c0.013,0 0.026,0 0.039,0.001c0.035,0.002 0.044,0.002 0.079,0.006c0.465,0.055 0.862,0.469 0.881,0.954c0.001,0.013 0.001,0.026 0.001,0.039l0,4c-0.01,0.503 -0.416,0.957 -0.922,0.997c-0.034,0.002 -0.043,0.002 -0.078,0.003Zm-1,-4c-0.667,0 -1.333,0 -2,0l0,2l2,0l0,-2Zm7,-2l-4,0c-0.035,-0.001 -0.044,-0.001 -0.078,-0.003c-0.48,-0.038 -0.901,-0.455 -0.921,-0.958c-0.001,-0.013 -0.001,-0.026 -0.001,-0.039l0,-4c0.01,-0.504 0.416,-0.957 0.922,-0.997c0.034,-0.003 0.043,-0.003 0.078,-0.003l4,0c0.013,0 0.026,0 0.039,0.001c0.035,0.002 0.044,0.002 0.079,0.006c0.465,0.055 0.862,0.469 0.881,0.954c0.001,0.013 0.001,0.026 0.001,0.039l0,4c-0.001,0.035 0,0.043 -0.003,0.078c-0.038,0.479 -0.455,0.901 -0.958,0.921c-0.013,0.001 -0.026,0.001 -0.039,0.001Zm-12,0l-4,0c-0.035,-0.001 -0.044,-0.001 -0.078,-0.003c-0.48,-0.038 -0.901,-0.455 -0.921,-0.958c-0.001,-0.013 -0.001,-0.026 -0.001,-0.039l0,-4c0.01,-0.504 0.416,-0.957 0.922,-0.997c0.034,-0.003 0.043,-0.003 0.078,-0.003l4,0c0.013,0 0.026,0 0.039,0.001c0.491,0.028 0.919,0.431 0.958,0.92c0.003,0.035 0.002,0.044 0.003,0.079l0,4c-0.001,0.035 0,0.043 -0.003,0.078c-0.038,0.479 -0.455,0.901 -0.958,0.921c-0.013,0.001 -0.026,0.001 -0.039,0.001Zm-1,-4c-0.667,0 -1.333,0 -2,0l0,2l2,0l0,-2Zm12,0l-2,0l0,2l2,0l0,-2Zm-5,-2l-4,0c-0.035,-0.001 -0.044,-0.001 -0.078,-0.003c-0.48,-0.038 -0.901,-0.455 -0.921,-0.958c-0.001,-0.013 -0.001,-0.026 -0.001,-0.039l0,-4c0.01,-0.504 0.416,-0.957 0.922,-0.997c0.034,-0.003 0.043,-0.003 0.078,-0.003l4,0c0.013,0 0.026,0 0.039,0.001c0.035,0.002 0.044,0.002 0.079,0.006c0.465,0.055 0.862,0.469 0.881,0.954c0.001,0.013 0.001,0.026 0.001,0.039l0,4c-0.01,0.504 -0.416,0.957 -0.922,0.997c-0.034,0.002 -0.043,0.002 -0.078,0.003Zm-1,-4c-0.667,0 -1.333,0 -2,0l0,2l2,0l0,-2Zm10,-19l-50,0c0,3.333 0,6.666 0,10l4,0l0,-2.175l-0.001,0c-1.016,-0.373 -1.818,-1.324 -1.97,-2.407c-0.131,-0.935 0.21,-1.922 0.888,-2.577c0.548,-0.528 1.292,-0.834 2.064,-0.841c0.006,0 0.013,0 0.019,0l0.019,0c1.11,0.01 2.178,0.679 2.668,1.666c0.405,0.814 0.412,1.814 0.016,2.635c-0.338,0.702 -0.968,1.243 -1.703,1.511l0,2.188l6,0l0,-2.175c-1.023,-0.375 -1.828,-1.336 -1.973,-2.426c-0.125,-0.932 0.219,-1.918 0.903,-2.57c0.546,-0.521 1.292,-0.822 2.051,-0.829c0.013,0 0.025,0 0.038,0c1.108,0.01 2.177,0.678 2.668,1.666c0.406,0.815 0.412,1.814 0.016,2.635c-0.338,0.702 -0.968,1.243 -1.703,1.511l0,2.188l6,0l0,-2.175c-1.023,-0.375 -1.828,-1.336 -1.973,-2.426c-0.125,-0.932 0.219,-1.918 0.903,-2.57c0.546,-0.521 1.292,-0.822 2.051,-0.829c0.006,0 0.013,0 0.019,0l0.019,0c1.108,0.01 2.177,0.678 2.668,1.666c0.406,0.815 0.412,1.814 0.016,2.635c-0.338,0.702 -0.968,1.243 -1.703,1.511l0,2.188l6,0l0,-2.175c-1.017,-0.373 -1.819,-1.324 -1.971,-2.407c-0.13,-0.929 0.205,-1.91 0.876,-2.565c0.548,-0.535 1.304,-0.846 2.076,-0.853c0.013,0 0.025,0 0.038,0c1.115,0.01 2.189,0.686 2.676,1.682c0.398,0.811 0.401,1.805 0.008,2.619c-0.338,0.702 -0.968,1.243 -1.703,1.511l0,2.188l6,0l0,-2.175c-1.017,-0.373 -1.819,-1.324 -1.971,-2.407c-0.13,-0.929 0.205,-1.91 0.876,-2.565c0.548,-0.535 1.304,-0.846 2.076,-0.853c0.013,0 0.025,0 0.038,0c1.115,0.01 2.189,0.686 2.676,1.682c0.398,0.811 0.401,1.805 0.008,2.619c-0.338,0.702 -0.968,1.243 -1.703,1.511l0,2.188l6,0l0,-2.175c-1.017,-0.373 -1.819,-1.324 -1.971,-2.407c-0.13,-0.929 0.205,-1.91 0.876,-2.565c0.548,-0.535 1.304,-0.846 2.076,-0.853c0.013,0 0.025,0 0.038,0c1.115,0.01 2.189,0.686 2.676,1.682c0.398,0.811 0.401,1.805 0.008,2.619c-0.338,0.702 -0.968,1.243 -1.703,1.511l0,2.188l4,0l0,-10Zm-37,4c-0.002,0 -0.004,0 -0.007,0c-0.445,0.004 -0.866,0.335 -0.967,0.773c-0.105,0.455 0.155,0.966 0.586,1.149c0.112,0.047 0.231,0.069 0.35,0.069l0.007,0c0.467,-0.002 0.94,-0.341 1.018,-0.832c0.089,-0.555 -0.361,-1.146 -0.967,-1.159c-0.005,0 -0.009,0 -0.013,0l-0.007,0Zm8,0c-0.002,0 -0.004,0 -0.007,0c-0.445,0.004 -0.866,0.335 -0.967,0.773c-0.105,0.455 0.155,0.966 0.586,1.149c0.112,0.047 0.231,0.069 0.35,0.069l0.007,0c0.467,-0.002 0.94,-0.341 1.018,-0.832c0.089,-0.555 -0.361,-1.146 -0.967,-1.159c-0.005,0 -0.009,0 -0.013,0l-0.007,0Zm24,0c-0.002,0 -0.004,0 -0.007,0c-0.443,0.004 -0.863,0.333 -0.966,0.767c-0.108,0.456 0.151,0.971 0.585,1.155c0.112,0.047 0.231,0.069 0.35,0.069l0.007,0c0.467,-0.002 0.94,-0.341 1.018,-0.832c0.089,-0.556 -0.361,-1.146 -0.967,-1.159c-0.005,0 -0.009,0 -0.013,0l-0.007,0Zm-16,0c-0.002,0 -0.004,0 -0.007,0c-0.443,0.004 -0.863,0.333 -0.966,0.767c-0.108,0.456 0.151,0.971 0.585,1.155c0.112,0.047 0.231,0.069 0.35,0.069l0.007,0c0.467,-0.002 0.94,-0.341 1.018,-0.832c0.089,-0.556 -0.361,-1.146 -0.967,-1.159c-0.005,0 -0.009,0 -0.013,0l-0.007,0Zm8,0c-0.002,0 -0.004,0 -0.007,0c-0.443,0.004 -0.863,0.333 -0.966,0.767c-0.108,0.456 0.151,0.971 0.585,1.155c0.112,0.047 0.231,0.069 0.35,0.069l0.007,0c0.467,-0.002 0.94,-0.341 1.018,-0.832c0.089,-0.556 -0.361,-1.146 -0.967,-1.159c-0.005,0 -0.009,0 -0.013,0l-0.007,0Zm-32,0c-0.002,0 -0.004,0 -0.007,0c-0.442,0.004 -0.862,0.332 -0.966,0.767c-0.108,0.456 0.151,0.971 0.585,1.155c0.112,0.047 0.231,0.069 0.35,0.069l0.007,0c0.467,-0.003 0.94,-0.341 1.018,-0.832c0.089,-0.555 -0.361,-1.146 -0.967,-1.159c-0.005,0 -0.009,0 -0.013,0l-0.007,0Z"/></svg>